<?xml version="1.0" encoding="UTF-8" standalone="no"?>
<svg
   width="90.256134mm"
   height="89.568069mm"
   viewBox="0 0 90.256134 89.568069"
   version="1.1"
   id="svg36"
   sodipodi:docname="pouchie-bino.svg"
   inkscape:version="1.2 (dc2aedaf03, 2022-05-15)"
   xmlns:inkscape="http://www.inkscape.org/namespaces/inkscape"
   xmlns:sodipodi="http://sodipodi.sourceforge.net/DTD/sodipodi-0.dtd"
   xmlns="http://www.w3.org/2000/svg"
   xmlns:svg="http://www.w3.org/2000/svg">
  <defs
     id="defs40" />
  <sodipodi:namedview
     id="namedview38"
     pagecolor="#ffffff"
     bordercolor="#666666"
     borderopacity="1.0"
     inkscape:showpageshadow="2"
     inkscape:pageopacity="0.0"
     inkscape:pagecheckerboard="0"
     inkscape:deskcolor="#d1d1d1"
     inkscape:document-units="mm"
     showgrid="true"
     inkscape:zoom="2.7885682"
     inkscape:cx="158.86289"
     inkscape:cy="163.88339"
     inkscape:window-width="2554"
     inkscape:window-height="1376"
     inkscape:window-x="0"
     inkscape:window-y="61"
     inkscape:window-maximized="1"
     inkscape:current-layer="svg36">
    <inkscape:grid
       type="xygrid"
       id="grid42" />
  </sodipodi:namedview>
  <ellipse
     ry="44.122578"
     rx="44.46661"
     cy="44.784039"
     cx="45.128067"
     style="fill:none;fill-opacity:1;stroke:#000000;stroke-width:1.32292;stroke-linecap:round;stroke-linejoin:miter;stroke-miterlimit:4;stroke-dasharray:none;stroke-opacity:1"
     id="ellipse2" />
  <path
     style="fill:none;fill-rule:evenodd;stroke:#000000;stroke-width:1.32292;stroke-linecap:round;stroke-linejoin:miter;stroke-miterlimit:4;stroke-dasharray:none;stroke-opacity:1"
     d="m 39.317344,23.02727 c 0,0 0.370156,-15.08977 -4.921511,-15.08977 C 29.791159,8.8050233 19.48679,33.28976 16.643344,49.229762 m -0.05363,14.13543 c 0.784397,4.156711 4.151691,10.001044 9.498467,12.578728 11.376624,6.251797 31.946817,5.57562 39.687497,0 10.79688,-7.777 7.42982,-19.80346 7.42982,-19.80346"
     id="path6"
     sodipodi:nodetypes="cccccsc" />
  <path
     style="fill:none;fill-rule:evenodd;stroke:#000000;stroke-width:1.32292;stroke-linecap:round;stroke-linejoin:miter;stroke-miterlimit:4;stroke-dasharray:none;stroke-opacity:1"
     d="m 39.317344,23.02727 c 0,0 1.322918,-1.32292 3.968751,-1.32292 2.645834,0 3.968749,1.32292 3.968749,1.32292"
     id="path10" />
  <ellipse
     style="fill:none;fill-opacity:1;stroke:#000000;stroke-width:1.32292;stroke-linecap:round;stroke-linejoin:miter;stroke-miterlimit:4;stroke-dasharray:none;stroke-opacity:1"
     cx="35.282448"
     cy="39.970089"
     rx="6.5484385"
     ry="6.5484376"
     id="ellipse12" />
  <ellipse
     ry="6.5484376"
     rx="6.5484385"
     cy="39.970089"
     cx="53.803261"
     style="fill:none;fill-opacity:1;stroke:#000000;stroke-width:1.32292;stroke-linecap:round;stroke-linejoin:miter;stroke-miterlimit:4;stroke-dasharray:none;stroke-opacity:1"
     id="ellipse14" />
  <ellipse
     ry="0.9921906"
     rx="0.99218857"
     cy="39.450249"
     cx="38.480885"
     style="fill:#000000;fill-opacity:1;stroke:#000000;stroke-width:1.32292;stroke-linecap:round;stroke-linejoin:miter;stroke-miterlimit:4;stroke-dasharray:none;stroke-opacity:1"
     id="ellipse16" />
  <ellipse
     style="fill:#000000;fill-opacity:1;stroke:#000000;stroke-width:1.32292;stroke-linecap:round;stroke-linejoin:miter;stroke-miterlimit:4;stroke-dasharray:none;stroke-opacity:1"
     cx="56.908607"
     cy="39.305756"
     rx="0.99218857"
     ry="0.9921906"
     id="ellipse18" />
  <path
     d="m 43.814286,49.485595 c 0,0 0.550428,1.32292 1.651283,1.32292 1.100856,0 1.651283,-1.32292 1.651283,-1.32292"
     style="fill:none;fill-rule:evenodd;stroke:#000000;stroke-width:1.32292;stroke-linecap:round;stroke-linejoin:miter;stroke-miterlimit:4;stroke-dasharray:none;stroke-opacity:1"
     id="path20" />
  <path
     style="fill:none;fill-opacity:1;fill-rule:evenodd;stroke:#000000;stroke-width:1.32291995;stroke-linecap:round;stroke-linejoin:round;stroke-miterlimit:4;stroke-dasharray:none;stroke-opacity:1"
     d="M 73.343796,55.87319 C 75.300036,55.05809 87.3125,31.75 74.801802,26.307847 c -2.37955,-1.23256 -0.718469,2.79632 -0.718469,2.79632 1.445143,8.684234 -5.307789,12.06534 -5.307789,12.06534 C 62.647684,22.953121 56.89352,7.367413 52.546513,7.15225 c -5.291661,0 -5.292036,15.87501 -5.292036,15.87501"
     id="path24"
     sodipodi:nodetypes="cccccc" />
  <g
     id="g385"
     transform="translate(7.8708784e-8,-3.1750001)">
    <path
       style="fill:none;fill-opacity:1;fill-rule:evenodd;stroke:#000000;stroke-width:1.32292;stroke-linecap:round;stroke-linejoin:round;stroke-miterlimit:4;stroke-dasharray:none;stroke-opacity:1"
       d="m 68.017468,31.750001 c 10.77355,-1.682499 10.69368,-13.175456 0,-15.213541"
       id="path379"
       sodipodi:nodetypes="cc" />
    <path
       style="fill:none;fill-opacity:1;fill-rule:evenodd;stroke:#000000;stroke-width:1.32292;stroke-linecap:round;stroke-linejoin:round;stroke-miterlimit:4;stroke-dasharray:none;stroke-opacity:1"
       d="m 68.017468,31.750001 c 4.12258,-4.231571 3.66644,-11.410156 0,-15.213541"
       id="path381"
       sodipodi:nodetypes="cc" />
  </g>
  <path
     style="fill:none;stroke:#000000;stroke-width:1.32292;stroke-linecap:round;stroke-linejoin:round;stroke-dasharray:none;stroke-opacity:1"
     d="m 17.462498,49.741668 c 3.237522,0.09822 10.613753,11.313509 13.8792,13.515124 3.265446,2.201616 12.049967,3.418209 6.7583,6.064043 -8.095081,3.379424 -15.667077,-0.521919 -21.166667,-5.820834 -2.630515,-2.561715 -3.226063,-6.436071 -3.174999,-8.995833 0.05106,-2.559762 0.466644,-4.860715 3.704166,-4.7625 z"
     id="path387"
     sodipodi:nodetypes="zzcczz" />
  <g
     id="g1150"
     transform="translate(62.738366,13.734941)">
    <ellipse
       style="fill:none;fill-opacity:1;stroke:#000000;stroke-width:1.32292;stroke-linecap:round;stroke-linejoin:miter;stroke-miterlimit:4;stroke-dasharray:none;stroke-opacity:1"
       cx="-21.166666"
       cy="49.014061"
       rx="3.9026041"
       ry="3.9026053"
       id="ellipse1067" />
    <path
       style="fill:none;stroke:#000000;stroke-width:1.32292;stroke-linecap:round;stroke-linejoin:round;stroke-dasharray:none;stroke-opacity:1"
       d="m -18.50587,54.992263 2.645833,-2.645833 v 2.645833 z"
       id="path1134" />
    <path
       style="fill:none;stroke:#000000;stroke-width:1.32292;stroke-linecap:round;stroke-linejoin:round;stroke-dasharray:none;stroke-opacity:1"
       d="m -15.219421,50.123307 -0.161054,-3.738306 1.949679,1.788626 z"
       id="path1136" />
    <path
       style="fill:none;stroke:#000000;stroke-width:1.32292;stroke-linecap:round;stroke-linejoin:round;stroke-dasharray:none;stroke-opacity:1"
       d="m -16.534078,44.717187 -3.201614,-1.936628 2.569121,-0.632493 z"
       id="path1138" />
    <path
       style="fill:none;stroke:#000000;stroke-width:1.32292;stroke-linecap:round;stroke-linejoin:round;stroke-dasharray:none;stroke-opacity:1"
       d="m -21.750221,42.635099 -3.45902,1.426899 1.016061,-2.44296 z"
       id="path1140" />
    <path
       style="fill:none;stroke:#000000;stroke-width:1.32292;stroke-linecap:round;stroke-linejoin:round;stroke-dasharray:none;stroke-opacity:1"
       d="m -26.461096,45.555429 -1.264075,3.521786 -1.128855,-2.392931 z"
       id="path1142" />
  </g>
</svg>
